<svg baseProfile="tiny" width="20" height="20" viewBox="0.878 0.702 3.976 3.687" xmlns="http://www.w3.org/2000/svg">
  <path d="M4.854.702H.878v3.687h3.976V.702zM4.68 4.2H1.051V.887H4.68V4.2z" fill="#fff"/>
  <path d="M1.542 3.485l-.004.289a23.202 23.202 0 0 1 1.445 0l-.007-.285c-.404.011-.366-.082-.366-.211v-.571l.501.622c.097.119.177.267.273.438.923 0 1.037.007 1.037.007v-.278c-.297-.029-.345-.059-.449-.189l-.64-.804c.398-.052.647-.274.643-.634-.003-.63-.539-.604-1.106-.615-.19-.004-1.089.004-1.331.004l.004.289c.37 0 .339.037.339.193v1.538c0 .1.048.237-.339.207zM2.61 1.569c.055-.004.104-.011.156-.011.273 0 .445.111.445.352h-.003c.003.33-.256.427-.598.437v-.778z" fill="#fff"/>
</svg>
